<svg width="16" height="16" viewBox="0 0 16 16" fill="none" xmlns="http://www.w3.org/2000/svg">
<mask id="path-1-inside-1_3488_24503" fill="white">
<path d="M12.6668 2.33203C13.2202 2.33203 13.6668 2.7787 13.6668 3.33203V12.6654C13.6668 13.2187 13.2202 13.6654 12.6668 13.6654H3.3335C2.78016 13.6654 2.3335 13.2187 2.3335 12.6654V3.33203C2.3335 2.7787 2.78016 2.33203 3.3335 2.33203H12.6668ZM12.6668 1.33203H3.3335C2.22683 1.33203 1.3335 2.22536 1.3335 3.33203V12.6654C1.3335 13.772 2.22683 14.6654 3.3335 14.6654H12.6668C13.7735 14.6654 14.6668 13.772 14.6668 12.6654V3.33203C14.6668 2.22536 13.7735 1.33203 12.6668 1.33203Z"/>
</mask>
<path d="M12.6668 2.33203C13.2202 2.33203 13.6668 2.7787 13.6668 3.33203V12.6654C13.6668 13.2187 13.2202 13.6654 12.6668 13.6654H3.3335C2.78016 13.6654 2.3335 13.2187 2.3335 12.6654V3.33203C2.3335 2.7787 2.78016 2.33203 3.3335 2.33203H12.6668ZM12.6668 1.33203H3.3335C2.22683 1.33203 1.3335 2.22536 1.3335 3.33203V12.6654C1.3335 13.772 2.22683 14.6654 3.3335 14.6654H12.6668C13.7735 14.6654 14.6668 13.772 14.6668 12.6654V3.33203C14.6668 2.22536 13.7735 1.33203 12.6668 1.33203Z" fill="#1E293B"/>
<path d="M12.6668 2.33203V3.83203C12.3917 3.83203 12.1668 3.60713 12.1668 3.33203H13.6668H15.1668C15.1668 1.95027 14.0486 0.832031 12.6668 0.832031V2.33203ZM13.6668 3.33203H12.1668V12.6654H13.6668H15.1668V3.33203H13.6668ZM13.6668 12.6654H12.1668C12.1668 12.3903 12.3917 12.1654 12.6668 12.1654V13.6654V15.1654C14.0486 15.1654 15.1668 14.0471 15.1668 12.6654H13.6668ZM12.6668 13.6654V12.1654H3.3335V13.6654V15.1654H12.6668V13.6654ZM3.3335 13.6654V12.1654C3.60859 12.1654 3.8335 12.3903 3.8335 12.6654H2.3335H0.833496C0.833496 14.0471 1.95174 15.1654 3.3335 15.1654V13.6654ZM2.3335 12.6654H3.8335V3.33203H2.3335H0.833496V12.6654H2.3335ZM2.3335 3.33203H3.8335C3.8335 3.60713 3.60859 3.83203 3.3335 3.83203V2.33203V0.832031C1.95174 0.832031 0.833496 1.95027 0.833496 3.33203H2.3335ZM3.3335 2.33203V3.83203H12.6668V2.33203V0.832031H3.3335V2.33203ZM12.6668 1.33203V-0.167969H3.3335V1.33203V2.83203H12.6668V1.33203ZM3.3335 1.33203V-0.167969C1.3984 -0.167969 -0.166504 1.39694 -0.166504 3.33203H1.3335H2.8335C2.8335 3.05379 3.05526 2.83203 3.3335 2.83203V1.33203ZM1.3335 3.33203H-0.166504V12.6654H1.3335H2.8335V3.33203H1.3335ZM1.3335 12.6654H-0.166504C-0.166504 14.6005 1.3984 16.1654 3.3335 16.1654V14.6654V13.1654C3.05526 13.1654 2.8335 12.9436 2.8335 12.6654H1.3335ZM3.3335 14.6654V16.1654H12.6668V14.6654V13.1654H3.3335V14.6654ZM12.6668 14.6654V16.1654C14.6019 16.1654 16.1668 14.6005 16.1668 12.6654H14.6668H13.1668C13.1668 12.9436 12.9451 13.1654 12.6668 13.1654V14.6654ZM14.6668 12.6654H16.1668V3.33203H14.6668H13.1668V12.6654H14.6668ZM14.6668 3.33203H16.1668C16.1668 1.39694 14.6019 -0.167969 12.6668 -0.167969V1.33203V2.83203C12.9451 2.83203 13.1668 3.05379 13.1668 3.33203H14.6668Z" fill="#1E293B" mask="url(#path-1-inside-1_3488_24503)"/>
<path d="M8 11.832C7.72667 11.832 7.5 11.6054 7.5 11.332V5.33203C7.5 5.0587 7.72667 4.83203 8 4.83203C8.27333 4.83203 8.5 5.0587 8.5 5.33203V11.332C8.5 11.6054 8.27333 11.832 8 11.832Z" fill="#1E293B"/>
<path d="M5.3335 11.8346C5.06016 11.8346 4.8335 11.608 4.8335 11.3346V8.66797C4.8335 8.39464 5.06016 8.16797 5.3335 8.16797C5.60683 8.16797 5.8335 8.39464 5.8335 8.66797V11.3346C5.8335 11.608 5.60683 11.8346 5.3335 11.8346Z" fill="#1E293B"/>
<path d="M10.6665 11.832C10.3932 11.832 10.1665 11.6054 10.1665 11.332V7.33203C10.1665 7.0587 10.3932 6.83203 10.6665 6.83203C10.9398 6.83203 11.1665 7.0587 11.1665 7.33203V11.332C11.1665 11.6054 10.9398 11.832 10.6665 11.832Z" fill="#1E293B"/>
</svg>
