<svg width="16" height="16" viewBox="0 0 16 16" fill="none" xmlns="http://www.w3.org/2000/svg">
<g clip-path="url(#clip0_3488_24437)">
<path d="M6 1.75H2.66667C2.29848 1.75 2 2.04848 2 2.41667V7.08333C2 7.45152 2.29848 7.75 2.66667 7.75H6C6.36819 7.75 6.66667 7.45152 6.66667 7.08333V2.41667C6.66667 2.04848 6.36819 1.75 6 1.75Z" stroke="#1E293B" stroke-width="1.25" stroke-linecap="round" stroke-linejoin="round"/>
<path d="M13.3335 1.75H10.0002C9.63197 1.75 9.3335 2.04848 9.3335 2.41667V4.41667C9.3335 4.78486 9.63197 5.08333 10.0002 5.08333H13.3335C13.7017 5.08333 14.0002 4.78486 14.0002 4.41667V2.41667C14.0002 2.04848 13.7017 1.75 13.3335 1.75Z" stroke="#1E293B" stroke-width="1.25" stroke-linecap="round" stroke-linejoin="round"/>
<path d="M13.3335 7.75H10.0002C9.63197 7.75 9.3335 8.04848 9.3335 8.41667V13.0833C9.3335 13.4515 9.63197 13.75 10.0002 13.75H13.3335C13.7017 13.75 14.0002 13.4515 14.0002 13.0833V8.41667C14.0002 8.04848 13.7017 7.75 13.3335 7.75Z" stroke="#1E293B" stroke-width="1.25" stroke-linecap="round" stroke-linejoin="round"/>
<path d="M6 10.418H2.66667C2.29848 10.418 2 10.7164 2 11.0846V13.0846C2 13.4528 2.29848 13.7513 2.66667 13.7513H6C6.36819 13.7513 6.66667 13.4528 6.66667 13.0846V11.0846C6.66667 10.7164 6.36819 10.418 6 10.418Z" stroke="#1E293B" stroke-width="1.25" stroke-linecap="round" stroke-linejoin="round"/>
</g>
<defs>
<clipPath id="clip0_3488_24437">
<rect width="16" height="16" fill="white"/>
</clipPath>
</defs>
</svg>
