<svg width="16" height="16" viewBox="0 0 16 16" fill="none" xmlns="http://www.w3.org/2000/svg">
<g clip-path="url(#clip0_3488_24484)">
<path d="M5.33317 14.6654C5.70136 14.6654 5.99984 14.3669 5.99984 13.9987C5.99984 13.6305 5.70136 13.332 5.33317 13.332C4.96498 13.332 4.6665 13.6305 4.6665 13.9987C4.6665 14.3669 4.96498 14.6654 5.33317 14.6654Z" stroke="#1E293B" stroke-width="1.25" stroke-linecap="round" stroke-linejoin="round"/>
<path d="M12.6667 14.6654C13.0349 14.6654 13.3333 14.3669 13.3333 13.9987C13.3333 13.6305 13.0349 13.332 12.6667 13.332C12.2985 13.332 12 13.6305 12 13.9987C12 14.3669 12.2985 14.6654 12.6667 14.6654Z" stroke="#1E293B" stroke-width="1.25" stroke-linecap="round" stroke-linejoin="round"/>
<path d="M1.3667 1.36719H2.70003L4.47337 9.64719C4.53842 9.95043 4.70715 10.2215 4.95051 10.4138C5.19387 10.606 5.49664 10.7074 5.8067 10.7005H12.3267C12.6301 10.7 12.9244 10.596 13.1607 10.4057C13.3971 10.2154 13.5615 9.95021 13.6267 9.65385L14.7267 4.70052H3.41337" stroke="#1E293B" stroke-width="1.25" stroke-linecap="round" stroke-linejoin="round"/>
</g>
<defs>
<clipPath id="clip0_3488_24484">
<rect width="16" height="16" fill="white"/>
</clipPath>
</defs>
</svg>
