<svg width="16" height="16" viewBox="0 0 16 16" fill="none" xmlns="http://www.w3.org/2000/svg">
<g clip-path="url(#clip0_3488_24513)">
<path d="M8.00016 14.6654C11.6821 14.6654 14.6668 11.6806 14.6668 7.9987C14.6668 4.3168 11.6821 1.33203 8.00016 1.33203C4.31826 1.33203 1.3335 4.3168 1.3335 7.9987C1.3335 11.6806 4.31826 14.6654 8.00016 14.6654Z" stroke="#1E293B" stroke-width="1.25" stroke-linecap="round" stroke-linejoin="round"/>
<path d="M8 8.66797C9.10457 8.66797 10 7.77254 10 6.66797C10 5.5634 9.10457 4.66797 8 4.66797C6.89543 4.66797 6 5.5634 6 6.66797C6 7.77254 6.89543 8.66797 8 8.66797Z" stroke="#1E293B" stroke-width="1.25" stroke-linecap="round" stroke-linejoin="round"/>
<path d="M4.6665 13.7734V12.6654C4.6665 12.3117 4.80698 11.9726 5.05703 11.7226C5.30708 11.4725 5.64622 11.332 5.99984 11.332H9.99984C10.3535 11.332 10.6926 11.4725 10.9426 11.7226C11.1927 11.9726 11.3332 12.3117 11.3332 12.6654V13.7734" stroke="#1E293B" stroke-width="1.25" stroke-linecap="round" stroke-linejoin="round"/>
</g>
<defs>
<clipPath id="clip0_3488_24513">
<rect width="16" height="16" fill="white"/>
</clipPath>
</defs>
</svg>
